<svg id="visual" viewBox="0 0 900 600" width="900" height="600" xmlns="http://www.w3.org/2000/svg" xmlns:xlink="http://www.w3.org/1999/xlink" version="1.1"><rect x="0" y="0" width="900" height="600" fill="#001220"></rect><g fill="#A7233A"><circle r="20" cx="673" cy="89"></circle><circle r="2" cx="583" cy="106"></circle><circle r="17" cx="702" cy="373"></circle><circle r="13" cx="200" cy="34"></circle><circle r="13" cx="54" cy="314"></circle><circle r="8" cx="457" cy="136"></circle><circle r="15" cx="109" cy="40"></circle><circle r="14" cx="349" cy="75"></circle><circle r="16" cx="188" cy="94"></circle><circle r="1" cx="321" cy="22"></circle><circle r="5" cx="390" cy="275"></circle><circle r="13" cx="780" cy="297"></circle><circle r="14" cx="477" cy="499"></circle><circle r="1" cx="500" cy="80"></circle><circle r="3" cx="832" cy="487"></circle><circle r="10" cx="785" cy="462"></circle><circle r="7" cx="148" cy="116"></circle><circle r="5" cx="860" cy="331"></circle><circle r="16" cx="175" cy="162"></circle><circle r="1" cx="314" cy="130"></circle><circle r="1" cx="546" cy="243"></circle><circle r="5" cx="68" cy="399"></circle><circle r="9" cx="354" cy="354"></circle><circle r="13" cx="796" cy="217"></circle><circle r="9" cx="561" cy="396"></circle><circle r="14" cx="792" cy="337"></circle><circle r="12" cx="348" cy="562"></circle><circle r="2" cx="752" cy="496"></circle><circle r="4" cx="839" cy="67"></circle><circle r="11" cx="307" cy="254"></circle><circle r="18" cx="359" cy="236"></circle><circle r="9" cx="610" cy="376"></circle><circle r="12" cx="488" cy="560"></circle><circle r="5" cx="97" cy="302"></circle><circle r="4" cx="106" cy="196"></circle><circle r="15" cx="376" cy="496"></circle><circle r="14" cx="725" cy="426"></circle><circle r="3" cx="211" cy="199"></circle><circle r="5" cx="168" cy="319"></circle><circle r="14" cx="402" cy="391"></circle><circle r="13" cx="31" cy="195"></circle><circle r="6" cx="712" cy="76"></circle><circle r="8" cx="250" cy="144"></circle><circle r="3" cx="417" cy="480"></circle><circle r="18" cx="44" cy="460"></circle><circle r="13" cx="573" cy="47"></circle><circle r="11" cx="235" cy="414"></circle><circle r="4" cx="748" cy="323"></circle><circle r="16" cx="770" cy="119"></circle><circle r="5" cx="330" cy="518"></circle><circle r="11" cx="618" cy="229"></circle><circle r="15" cx="586" cy="172"></circle><circle r="12" cx="709" cy="281"></circle><circle r="3" cx="677" cy="210"></circle><circle r="9" cx="340" cy="182"></circle><circle r="7" cx="88" cy="340"></circle><circle r="18" cx="778" cy="422"></circle><circle r="8" cx="707" cy="494"></circle><circle r="12" cx="438" cy="49"></circle><circle r="16" cx="297" cy="192"></circle><circle r="10" cx="713" cy="165"></circle><circle r="3" cx="370" cy="455"></circle><circle r="14" cx="460" cy="307"></circle><circle r="18" cx="76" cy="509"></circle><circle r="9" cx="759" cy="27"></circle><circle r="12" cx="667" cy="544"></circle><circle r="12" cx="662" cy="352"></circle><circle r="16" cx="856" cy="171"></circle><circle r="15" cx="262" cy="105"></circle><circle r="10" cx="555" cy="547"></circle><circle r="4" cx="109" cy="463"></circle><circle r="10" cx="22" cy="28"></circle><circle r="17" cx="590" cy="437"></circle><circle r="1" cx="413" cy="204"></circle><circle r="13" cx="406" cy="335"></circle><circle r="18" cx="47" cy="546"></circle><circle r="15" cx="792" cy="535"></circle><circle r="9" cx="212" cy="298"></circle><circle r="5" cx="246" cy="574"></circle><circle r="8" cx="424" cy="567"></circle><circle r="14" cx="466" cy="449"></circle><circle r="10" cx="726" cy="115"></circle><circle r="8" cx="239" cy="50"></circle><circle r="12" cx="613" cy="558"></circle><circle r="2" cx="513" cy="156"></circle><circle r="18" cx="652" cy="429"></circle><circle r="5" cx="875" cy="38"></circle><circle r="3" cx="408" cy="23"></circle><circle r="1" cx="754" cy="257"></circle><circle r="18" cx="793" cy="163"></circle><circle r="1" cx="396" cy="530"></circle><circle r="16" cx="756" cy="198"></circle><circle r="8" cx="522" cy="410"></circle><circle r="5" cx="24" cy="143"></circle><circle r="13" cx="150" cy="445"></circle><circle r="3" cx="831" cy="233"></circle><circle r="14" cx="405" cy="70"></circle><circle r="10" cx="212" cy="507"></circle><circle r="15" cx="179" cy="397"></circle><circle r="16" cx="424" cy="436"></circle><circle r="10" cx="674" cy="43"></circle><circle r="11" cx="672" cy="131"></circle><circle r="2" cx="383" cy="127"></circle><circle r="14" cx="179" cy="259"></circle><circle r="7" cx="273" cy="345"></circle><circle r="6" cx="159" cy="198"></circle><circle r="2" cx="244" cy="455"></circle><circle r="15" cx="52" cy="266"></circle><circle r="13" cx="147" cy="498"></circle><circle r="8" cx="466" cy="375"></circle><circle r="11" cx="285" cy="534"></circle><circle r="11" cx="311" cy="452"></circle><circle r="15" cx="428" cy="164"></circle><circle r="4" cx="577" cy="318"></circle><circle r="11" cx="67" cy="93"></circle><circle r="14" cx="116" cy="82"></circle><circle r="14" cx="345" cy="277"></circle><circle r="3" cx="622" cy="478"></circle><circle r="6" cx="527" cy="304"></circle><circle r="13" cx="875" cy="136"></circle><circle r="9" cx="299" cy="493"></circle><circle r="8" cx="851" cy="445"></circle><circle r="9" cx="811" cy="380"></circle><circle r="15" cx="460" cy="247"></circle><circle r="10" cx="282" cy="53"></circle><circle r="7" cx="546" cy="489"></circle><circle r="9" cx="626" cy="184"></circle><circle r="2" cx="526" cy="21"></circle><circle r="15" cx="668" cy="502"></circle><circle r="12" cx="241" cy="228"></circle><circle r="14" cx="153" cy="55"></circle><circle r="4" cx="373" cy="42"></circle><circle r="14" cx="814" cy="116"></circle><circle r="5" cx="866" cy="277"></circle><circle r="18" cx="280" cy="428"></circle><circle r="8" cx="121" cy="575"></circle><circle r="11" cx="129" cy="257"></circle><circle r="8" cx="735" cy="551"></circle><circle r="1" cx="874" cy="89"></circle><circle r="1" cx="139" cy="361"></circle><circle r="12" cx="491" cy="218"></circle><circle r="17" cx="385" cy="174"></circle><circle r="14" cx="456" cy="91"></circle><circle r="10" cx="808" cy="37"></circle><circle r="4" cx="317" cy="400"></circle><circle r="15" cx="185" cy="357"></circle><circle r="1" cx="299" cy="308"></circle><circle r="6" cx="659" cy="251"></circle><circle r="10" cx="713" cy="235"></circle><circle r="7" cx="504" cy="352"></circle><circle r="3" cx="837" cy="561"></circle><circle r="8" cx="23" cy="364"></circle><circle r="15" cx="868" cy="513"></circle><circle r="14" cx="875" cy="221"></circle><circle r="9" cx="95" cy="144"></circle><circle r="4" cx="289" cy="576"></circle><circle r="3" cx="588" cy="272"></circle><circle r="11" cx="629" cy="295"></circle><circle r="13" cx="868" cy="401"></circle><circle r="16" cx="74" cy="576"></circle><circle r="11" cx="34" cy="421"></circle><circle r="16" cx="133" cy="536"></circle><circle r="1" cx="68" cy="213"></circle><circle r="10" cx="260" cy="293"></circle><circle r="12" cx="764" cy="580"></circle><circle r="2" cx="430" cy="280"></circle><circle r="3" cx="31" cy="72"></circle><circle r="9" cx="627" cy="69"></circle><circle r="12" cx="127" cy="402"></circle><circle r="17" cx="470" cy="23"></circle><circle r="17" cx="175" cy="578"></circle><circle r="18" cx="751" cy="385"></circle><circle r="12" cx="818" cy="276"></circle><circle r="18" cx="551" cy="447"></circle><circle r="7" cx="233" cy="361"></circle><circle r="13" cx="361" cy="398"></circle><circle r="16" cx="495" cy="121"></circle><circle r="14" cx="683" cy="461"></circle><circle r="7" cx="514" cy="465"></circle><circle r="2" cx="306" cy="85"></circle><circle r="3" cx="366" cy="314"></circle><circle r="11" cx="619" cy="134"></circle><circle r="2" cx="28" cy="510"></circle><circle r="10" cx="543" cy="181"></circle><circle r="15" cx="589" cy="511"></circle><circle r="18" cx="21" cy="291"></circle><circle r="10" cx="770" cy="70"></circle><circle r="8" cx="695" cy="578"></circle><circle r="14" cx="874" cy="577"></circle><circle r="10" cx="699" cy="325"></circle><circle r="7" cx="671" cy="297"></circle><circle r="15" cx="554" cy="352"></circle><circle r="4" cx="208" cy="549"></circle><circle r="14" cx="466" cy="179"></circle><circle r="16" cx="68" cy="34"></circle><circle r="18" cx="437" cy="514"></circle><circle r="15" cx="58" cy="165"></circle><circle r="1" cx="817" cy="423"></circle><circle r="9" cx="631" cy="25"></circle><circle r="11" cx="90" cy="251"></circle><circle r="3" cx="316" cy="343"></circle><circle r="14" cx="132" cy="159"></circle><circle r="5" cx="719" cy="24"></circle><circle r="12" cx="528" cy="575"></circle><circle r="15" cx="188" cy="470"></circle><circle r="11" cx="502" cy="267"></circle><circle r="11" cx="207" cy="132"></circle><circle r="9" cx="582" cy="214"></circle><circle r="15" cx="554" cy="133"></circle><circle r="18" cx="540" cy="97"></circle><circle r="15" cx="480" cy="412"></circle><circle r="17" cx="521" cy="525"></circle><circle r="17" cx="257" cy="184"></circle><circle r="7" cx="252" cy="505"></circle><circle r="12" cx="665" cy="173"></circle><circle r="1" cx="579" cy="579"></circle><circle r="11" cx="174" cy="530"></circle><circle r="7" cx="20" cy="233"></circle><circle r="4" cx="266" cy="388"></circle><circle r="11" cx="198" cy="431"></circle><circle r="5" cx="624" cy="337"></circle></g></svg>